<?xml version="1.0" encoding="UTF-8" standalone="no"?>
<!-- Created with Inkscape (http://www.inkscape.org/) -->

<svg
   xmlns:dc="http://purl.org/dc/elements/1.1/"
   xmlns:cc="http://creativecommons.org/ns#"
   xmlns:rdf="http://www.w3.org/1999/02/22-rdf-syntax-ns#"
   xmlns:svg="http://www.w3.org/2000/svg"
   xmlns="http://www.w3.org/2000/svg"
   xmlns:sodipodi="http://sodipodi.sourceforge.net/DTD/sodipodi-0.dtd"
   xmlns:inkscape="http://www.inkscape.org/namespaces/inkscape"
   width="100"
   height="100"
   id="svg2"
   version="1.1"
   inkscape:version="0.48.4 r9939"
   sodipodi:docname="fatiando-logo-noborder.svg"
   inkscape:export-filename="fatiando-logo-noborder.png"
   inkscape:export-xdpi="150"
   inkscape:export-ydpi="150">
  <defs
     id="defs4" />
  <sodipodi:namedview
     id="base"
     pagecolor="#ffffff"
     bordercolor="#666666"
     borderopacity="1.0"
     inkscape:pageopacity="0"
     inkscape:pageshadow="2"
     inkscape:zoom="1.4"
     inkscape:cx="-49.422657"
     inkscape:cy="9.48889"
     inkscape:document-units="px"
     inkscape:current-layer="layer1"
     showgrid="false"
     inkscape:window-width="1366"
     inkscape:window-height="719"
     inkscape:window-x="0"
     inkscape:window-y="25"
     inkscape:window-maximized="1" />
  <metadata
     id="metadata7">
    <rdf:RDF>
      <cc:Work
         rdf:about="">
        <dc:format>image/svg+xml</dc:format>
        <dc:type
           rdf:resource="http://purl.org/dc/dcmitype/StillImage" />
        <dc:title />
      </cc:Work>
    </rdf:RDF>
  </metadata>
  <g
     inkscape:label="Layer 1"
     inkscape:groupmode="layer"
     id="layer1"
     transform="translate(0,-952.36218)">
    <g
       id="g3909"
       transform="matrix(0.66884791,0,0,0.66884791,-9.4809456,357.15056)">
      <path
         sodipodi:nodetypes="ccscssc"
         inkscape:connector-curvature="0"
         id="path4034-9-5"
         d="m 15.372511,979.75743 c -2.259304,-6.48689 16.369236,6.0159 18.261299,7.78826 4.441064,4.1759 20.594726,19.36591 21.228334,20.46811 0.507024,0.8821 -0.69713,2.6564 -0.85514,2.776 -0.158025,0.1197 -3.339927,-2.0169 -5.82994,-4.3241 -5.915134,-5.4812 -12.906541,-13.72367 -16.184416,-16.60186 -3.463775,-3.04142 -15.361677,-7.47443 -16.620137,-10.10641 z"
         style="color:#000000;fill:#808080;fill-opacity:1;fill-rule:nonzero;stroke:#808080;stroke-width:1.53193474;stroke-miterlimit:4;stroke-dasharray:none;marker:none;visibility:visible;display:inline;overflow:visible;enable-background:accumulate" />
      <path
         sodipodi:nodetypes="csscsscsascc"
         inkscape:connector-curvature="0"
         id="path4036-2-4"
         d="m 67.358728,990.43132 c -1.791966,-1.57222 -12.85521,-25.70479 -16.226769,-31.81078 -2.142043,-3.87931 -4.287456,-6.59076 -7.104653,-10.37248 -2.097878,-2.81611 -5.682691,-5.88701 -7.020575,-7.76519 -2.192465,-3.23655 -12.60311,-6.09069 -11.911436,-8.59693 0.169718,-0.61497 2.332004,-2.45654 5.964661,-1.32973 1.700566,0.5275 8.394808,6.08815 10.817907,8.43621 4.281344,4.09187 5.757884,5.748 9.393487,10.53598 4.371115,5.75663 5.424108,7.7835 7.807977,11.87843 1.779367,3.05653 3.262226,5.06778 4.83243,9.44588 2.796089,7.79614 4.482532,17.41764 4.48524,18.63126 0.0061,2.71444 0.597393,2.38247 -1.038269,0.94735 z"
         style="color:#000000;fill:#808080;fill-opacity:1;fill-rule:nonzero;stroke:#808080;stroke-width:1.53193474;stroke-miterlimit:4;stroke-dasharray:none;marker:none;visibility:visible;display:inline;overflow:visible;enable-background:accumulate" />
      <path
         sodipodi:nodetypes="cccsscc"
         inkscape:connector-curvature="0"
         id="path4020-0-9"
         d="m 74.679531,941.91207 c -2.137769,0 -4.745934,-2.98292 -5.385348,-4.12009 -0.645496,-1.14807 -0.193803,-5.83562 0.645145,-7.40084 0.925932,-1.72756 3.567504,-1.6648 5.695193,-1.97212 1.615839,-0.23341 3.015426,-2.40473 3.825667,-0.86052 1.065552,2.03082 5.553801,22.16242 5.553801,23.18251 -3.138368,-2.56311 -7.216776,-8.67625 -10.334458,-8.82894 z"
         style="color:#000000;fill:#164184;fill-opacity:1;fill-rule:nonzero;stroke:#164184;stroke-width:1.53193474;stroke-miterlimit:4;stroke-dasharray:none;marker:none;visibility:visible;display:inline;overflow:visible;enable-background:accumulate" />
      <path
         sodipodi:nodetypes="cscssssasssssssssssssscssssscsscsssssssssssscccssccsccc"
         inkscape:connector-curvature="0"
         id="path4018-4-5"
         d="m 31.327674,1009.9345 c -7.98452,-8.6082 -12.768879,-17.53878 -10.518314,-19.47744 1.350401,-1.16335 9.021043,0.78787 10.479398,0.77393 1.890301,-0.4821 11.697215,10.77181 17.666368,16.49031 2.135302,2.0458 3.202886,3.4922 5.051377,2.5226 1.397003,-0.7328 0.336253,-4.5312 -0.934793,-6.1675 -0.64113,-0.8254 -7.543723,-10.57891 -8.845791,-13.24815 -1.302067,-2.66925 -3.090859,-4.85961 -4.643093,-7.28497 -4.823793,-7.53742 -9.547818,-13.66899 -14.513626,-22.58496 -2.46349,-4.42309 -5.771763,-9.33227 -7.037126,-12.74589 -0.698501,-1.88441 -0.645404,-2.29982 0.721266,-5.64338 1.806074,-4.41859 5.691765,-11.15744 7.103596,-11.4077 1.982492,-0.35141 4.196521,1.68831 9.749049,8.72755 7.407578,9.39112 12.870698,15.83426 16.871161,22.8527 6.200123,10.8772 15.561076,30.96699 16.243522,30.96699 2.113978,0 -5.721194,-35.12345 -9.224146,-43.942 -0.781226,-1.96671 -2.532794,-5.44185 -3.892416,-7.72256 -1.359623,-2.28068 -4.35333,-7.76224 -6.652733,-12.18119 -2.299373,-4.41899 -4.421434,-9.63392 -4.672811,-10.49317 -1.197691,-4.09393 4.853287,-10.17448 7.913904,-12.41388 0.80145,-0.58641 2.661135,-2.04254 4.598426,-3.4044 1.83074,-1.28694 4.724535,-3.14077 6.472872,-3.91123 1.227598,-0.54097 3.824108,-0.0942 0.271385,3.7698 -3.925659,5.45782 -10.020864,10.50191 -10.020864,19.67639 0,8.40803 1.394987,8.07475 5.205782,12.20595 4.264799,4.6234 22.586483,12.36143 26.819268,15.13475 10.959573,7.18073 2.926466,-6.43624 3.54867,4.94532 0.128376,2.34828 3.27744,-2.52976 4.309519,-2.30442 1.035496,0.22612 0.15814,20.13125 -0.110804,18.00952 -0.12853,-3.33992 0.936767,0.26886 5.137271,2.61348 6.227419,3.47581 11.469169,11.56427 10.823609,23.02115 -0.15563,2.76269 0.24631,5.4989 0.39272,6.4148 0.37163,2.3384 -1.53221,0.5668 0.65285,0.5668 3.02728,0 1.90075,2.1527 4.48223,-6.04038 2.97218,-9.43319 3.42687,-11.92152 6.03376,-15.58575 1.18668,-1.66782 3.23839,-4.43204 4.22503,-6.30973 0.9866,-1.87785 2.4393,-4.57727 3.56252,-6.16619 3.54573,-5.01525 1.65981,-4.52427 -0.24084,-8.26137 -1.28384,-2.52434 -1.38312,-2.83937 -5.71059,-3.70215 -3.86572,-0.77071 -8.93532,-3.83415 -12.5041,-6.13816 -1.58119,-1.02084 -2.61912,0.17562 -3.81113,-0.0161 -2.70293,-0.43465 -3.71481,-1.62912 -5.73651,-0.0285 -2.960049,2.3434 -5.348162,2.04172 -6.899537,2.41834 -7.456294,1.81018 -3.352425,-7.53921 -2.911779,-14.97618 0.290914,-4.9109 2.310577,-10.4399 2.314882,-12.45381 0.0031,-2.21993 -1.302528,-12.49472 -0.792792,-13.45914 0.319386,-2.41382 -0.703896,-4.96294 0.417546,-10.61819 -0.171056,-1.87771 0.327711,-6.33692 0.195181,-6.74638 -0.126278,-0.39015 -1.051836,-0.70228 -0.290834,-0.90706 2.130909,-0.5734 8.080763,-0.32644 12.046153,0.31382 15.02004,2.76827 29.18665,9.96399 40.31479,22.35373 11.40048,13.67515 17.70411,29.75174 17.70381,44.99514 -2.8e-4,14.90389 -5.09788,28.77832 -12.39219,41.00626 -11.85231,19.4434 -34.10043,29.1368 -53.966273,30.9817 -24.831131,1.9443 -48.393808,-6.6338 -65.004823,-24.4191 z"
         style="color:#000000;fill:#164184;fill-opacity:1;fill-rule:nonzero;stroke:#164184;stroke-width:1.53384972;stroke-miterlimit:4;stroke-dasharray:none;marker:none;visibility:visible;display:inline;overflow:visible;enable-background:accumulate" />
      <path
         sodipodi:nodetypes="sccss"
         inkscape:connector-curvature="0"
         id="path4032-0-0"
         d="m 32.777758,973.43297 c -1.533423,-1.98477 -5.700325,-8.2415 -4.810436,-7.91137 1.478884,0.67773 8.04666,5.79608 8.422857,6.79873 0.136342,0.36353 1.593534,8.70721 0.992271,7.85806 -1.189982,-1.68069 -3.234763,-4.97236 -4.604692,-6.74542 z"
         style="color:#000000;fill:#5aa02c;fill-opacity:1;fill-rule:nonzero;stroke:#5aa02c;stroke-width:1.53193474;stroke-miterlimit:4;stroke-dasharray:none;marker:none;visibility:visible;display:inline;overflow:visible;enable-background:accumulate" />
      <path
         sodipodi:nodetypes="cssssssscccc"
         inkscape:connector-curvature="0"
         id="path4038-9-5"
         d="m 83.003095,938.68414 c -3.778487,-12.33529 -7.798007,-17.4727 -9.11855,-19.71434 -0.986949,-1.67541 -3.298393,-5.43378 -5.289495,-8.61662 -0.813212,-1.29995 -5.523413,-9.10974 -4.912442,-10.25488 0,0 0.138916,-0.6193 0.39141,-0.73361 0.247396,-0.11198 0.793174,0.18609 0.793174,0.18609 2.892766,0.67866 8.809239,10.85076 12.609387,16.96098 2.719368,4.37241 6.09217,10.56233 7.15351,13.19617 0.39671,0.98448 2.425495,6.51374 2.917246,7.83558 0.674787,11.27297 1.708143,19.61094 1.846988,20.40931 -1.477969,-1.60104 -3.571794,-9.57006 -6.391228,-19.26857 z"
         style="color:#000000;fill:#808080;fill-opacity:1;fill-rule:nonzero;stroke:#808080;stroke-width:1.53193474;stroke-miterlimit:4;stroke-dasharray:none;marker:none;visibility:visible;display:inline;overflow:visible;enable-background:accumulate" />
      <path
         sodipodi:nodetypes="cssssssscc"
         inkscape:connector-curvature="0"
         id="path4040-6-8"
         d="m 89.103953,953.4787 c -1.890224,-10.99655 -0.185737,-26.69591 0.276616,-34.68112 0.07307,-1.26267 -0.04121,-4.00872 0.08518,-7.07069 0.263171,-6.37178 1.767563,-14.85833 2.081201,-15.94205 0.312812,-1.08087 0.865043,-1.10748 1.279796,-0.94729 0.497121,0.19202 0.819129,0.77188 0.596242,1.73513 -0.14028,0.60624 -0.590613,15.1782 -0.674226,20.52248 -0.08686,5.54934 -0.317953,11.12478 -0.538935,12.99953 -0.617125,5.23585 -0.846133,6.0265 -0.957214,13.91873 -0.921344,6.49726 -0.235491,21.55904 -2.148656,9.46528 z"
         style="color:#000000;fill:#808080;fill-opacity:1;fill-rule:nonzero;stroke:#808080;stroke-width:1.50741196;marker:none;visibility:visible;display:inline;overflow:visible;enable-background:accumulate" />
      <path
         inkscape:connector-curvature="0"
         id="path4062-1-1"
         d="m 117.35503,913.13166 c -0.16481,-0.49981 -0.26397,-2.46603 -0.22639,-4.49062 0.0771,-4.15577 -0.12792,-4.67651 -2.27227,-5.77198 -1.29443,-0.66126 -1.57776,-1.08358 -1.60826,-2.39711 -0.0305,-1.31365 0.64882,-2.04415 1.90093,-2.04415 1.47316,0 3.81781,0.92777 5.02374,1.98788 0.95654,0.84088 0.99187,0.93169 0.71659,1.84197 -0.15933,0.52659 -0.52764,2.69342 -0.81863,4.81521 -0.68409,4.98831 -0.96111,6.17182 -1.5443,6.59828 -0.7001,0.51192 -0.84693,0.44428 -1.17141,-0.53951 z"
         style="color:#000000;fill:#ececec;fill-opacity:1;fill-rule:nonzero;stroke:#ececec;stroke-width:0.76596737;stroke-opacity:1;marker:none;visibility:visible;display:inline;overflow:visible;enable-background:accumulate" />
      <path
         sodipodi:nodetypes="ccccscscccccc"
         inkscape:connector-curvature="0"
         id="path4064-9-9"
         d="m 70.267763,1033.1291 c -2.214163,-0.3004 9.328666,-5.5062 12.028195,-6.0674 1.369489,-0.2843 9.960034,0.4542 14.007023,-0.015 7.939079,-0.9176 12.115969,-0.4122 12.780389,-1.0802 0.32664,-0.3284 0.41926,-1.0988 0.41926,-3.4871 0,-1.6861 0.0965,-3.3292 0.21422,-3.6515 0.265,-0.7248 1.29037,-1.0682 1.29037,-0.4322 0,0.9847 1.19302,2.8223 2.41399,3.7182 0.7035,0.5162 2.41889,1.4297 3.81199,2.0302 1.39313,0.6004 4.5098,2.567 4.91633,2.8334 1.01171,0.9992 0.32459,1.3424 -1.04718,1.9662 -7.49452,3.3514 -16.94201,5.7369 -25.832605,6.2969 -8.180821,0.3324 -17.374963,-0.3026 -25.001982,-2.1112 z"
         style="color:#000000;fill:#ececec;fill-opacity:1;fill-rule:nonzero;stroke:#ececec;stroke-width:0.76596737;stroke-opacity:1;marker:none;visibility:visible;display:inline;overflow:visible;enable-background:accumulate" />
      <path
         sodipodi:nodetypes="csccsccssscscscc"
         inkscape:connector-curvature="0"
         id="path3248-6-5"
         d="m 109.36319,1004.8012 c -0.68027,-0.6477 -0.82892,-2.2244 -0.77971,-8.2714 0.10999,-13.4965 -3.23071,-20.11262 -10.957624,-24.40786 -5.190869,-2.8857 -6.764943,-8.359 -6.289461,-11.1381 -0.569362,-3.01771 0.17994,-5.27074 0.645433,-5.92284 0.495482,-0.69412 4.181937,-2.65403 7.034228,-4.0392 2.711014,-1.55912 4.320804,-2.14072 5.901884,-2.13232 2.24277,0.0123 6.43457,1.52752 7.11256,2.57167 0.68176,1.04998 6.50257,3.53453 12.20704,5.21047 3.24336,0.95288 5.99536,2.09337 6.60925,2.73905 1.83137,1.92615 1.36543,4.51251 -1.75227,9.7263 -1.5423,2.57932 -3.63387,6.09909 -4.6479,7.8219 -1.01405,1.72282 -2.64832,3.97997 -3.6317,5.01602 -2.16135,2.27722 -3.48612,5.36866 -6.04367,14.10452 -1.06838,3.64922 -2.07059,7.04889 -2.22711,7.55469 -0.45619,1.4744 -2.18987,2.1103 -3.18095,1.1671 z"
         style="color:#000000;fill:#5aa02c;fill-opacity:1;fill-rule:nonzero;stroke:#5aa02c;stroke-width:2.30077434;stroke-miterlimit:4;stroke-dasharray:none;marker:none;visibility:visible;display:inline;overflow:visible;enable-background:accumulate" />
      <path
         sodipodi:nodetypes="ssssscscssss"
         inkscape:connector-curvature="0"
         id="path4022-9-7"
         d="m 78.363921,949.86561 c -4.188401,-2.5063 -9.933738,-5.89519 -15.942384,-10.53496 -3.863065,-2.98295 -5.302838,-4.47668 -6.481003,-6.72372 -4.179991,-7.97225 -3.194456,-17.70231 3.814303,-26.00429 1.483161,-1.75683 2.716153,-3.46573 3.41454,-2.73499 3.144895,3.29061 5.654924,8.15052 8.161451,12.41617 2.60759,4.4535 6.939316,10.6618 5.55196,12.02966 -1.502724,1.4816 -4.28488,0.11705 -6.075992,1.6557 -1.254147,1.12203 -2.591191,1.60616 -2.590349,4.33319 0.0012,3.90303 1.343905,6.17881 4.489994,7.61025 1.40774,0.6405 4.336187,2.78242 6.483852,4.78316 6.153276,5.73232 6.534621,7.57459 -0.826372,3.16983 z"
         style="color:#000000;fill:#5aa02c;fill-opacity:1;fill-rule:nonzero;stroke:#5aa02c;stroke-width:2.30077434;stroke-miterlimit:4;stroke-dasharray:none;marker:none;visibility:visible;display:inline;overflow:visible;enable-background:accumulate" />
      <path
         sodipodi:nodetypes="sszsss"
         inkscape:connector-curvature="0"
         id="path4024-9-0"
         d="m 19.044668,990.68639 c -1.160239,-1.85855 -3.338067,-10.05547 -3.649891,-11.28194 -0.529084,-2.08098 2.066591,-0.96682 4.470211,1.49563 2.40362,2.46245 9.272052,7.18681 11.663453,10.43056 1.033323,1.40162 -5.914441,3.39056 -9.231887,4.72778 -1.292493,0.52086 -2.260488,-3.78388 -3.251886,-5.37203 z"
         style="color:#000000;fill:#5aa02c;fill-opacity:1;fill-rule:nonzero;stroke:#5aa02c;stroke-width:2.30077434;stroke-miterlimit:4;stroke-dasharray:none;marker:none;visibility:visible;display:inline;overflow:visible;enable-background:accumulate" />
      <path
         sodipodi:nodetypes="scssss"
         inkscape:connector-curvature="0"
         id="path4026-8-1"
         d="m 139.37399,926.49081 c -1.70372,-1.77569 0.61312,-2.94633 2.74019,-5.37284 1.02862,-1.17345 -0.0495,-5.30634 0.87658,-5.47762 0.51036,-0.0944 7.07089,8.16888 6.72762,8.54861 -0.47766,0.52842 -2.91394,-0.0842 -4.65964,1.9938 -3.28424,3.90948 -3.46719,2.61929 -5.68475,0.30805 z"
         style="color:#000000;fill:#5aa02c;fill-opacity:1;fill-rule:nonzero;stroke:#5aa02c;stroke-width:2.30077434;stroke-miterlimit:4;stroke-dasharray:none;marker:none;visibility:visible;display:inline;overflow:visible;enable-background:accumulate" />
      <path
         sodipodi:nodetypes="ssssss"
         inkscape:connector-curvature="0"
         id="path4028-1-3"
         d="m 94.345064,913.89897 c -0.291864,-6.11272 1.077915,-8.76334 5.927066,-8.34972 1.99521,0.17028 3.01887,0.20512 3.56076,1.19321 0.98348,1.79309 -1.83566,5.43606 -4.763446,7.23507 -1.063868,0.65368 -3.172224,2.92652 -3.614677,3.18734 -0.872804,0.51453 -1.037227,-1.74813 -1.109703,-3.2659 z"
         style="color:#000000;fill:#5aa02c;fill-opacity:1;fill-rule:nonzero;stroke:#5aa02c;stroke-width:2.30077434;stroke-miterlimit:4;stroke-dasharray:none;marker:none;visibility:visible;display:inline;overflow:visible;enable-background:accumulate" />
      <path
         sodipodi:nodetypes="sscsacs"
         inkscape:connector-curvature="0"
         id="path4030-9-3"
         d="m 145.24337,938.43663 c 0.60684,-2.77389 7.39705,-9.81177 8.25777,-8.92016 6.11006,6.32945 8.20662,22.27306 8.92105,28.30631 0.62564,4.50488 -1.49819,26.28609 -2.50642,21.63107 -1.69896,-7.84414 1.80962,-11.17687 -0.0839,-16.2529 -1.43271,-3.84072 -4.1311,-7.73072 -8.00605,-9.33475 -3.87494,-1.60404 -7.77249,-9.98975 -6.58245,-15.42957 z"
         style="color:#000000;fill:#5aa02c;fill-opacity:1;fill-rule:nonzero;stroke:#5aa02c;stroke-width:2.30077434;stroke-miterlimit:4;stroke-dasharray:none;marker:none;visibility:visible;display:inline;overflow:visible;enable-background:accumulate" />
    </g>
  </g>
</svg>
